<mxfile host="app.diagrams.net" modified="2022-09-06T12:20:07.381Z" agent="5.0 (Windows NT 10.0; Win64; x64) AppleWebKit/537.36 (KHTML, like Gecko) Chrome/105.0.0.0 Safari/537.36 Edg/105.0.1343.27" etag="aZTyphAmfxy4LchmXu0c" version="20.2.0" type="github">
  <diagram id="C5RBs43oDa-KdzZeNtuy" name="Page-1">
    <mxGraphModel dx="1209" dy="773" grid="1" gridSize="10" guides="1" tooltips="1" connect="1" arrows="1" fold="1" page="1" pageScale="1" pageWidth="827" pageHeight="1169" math="0" shadow="0">
      <root>
        <mxCell id="WIyWlLk6GJQsqaUBKTNV-0" />
        <mxCell id="WIyWlLk6GJQsqaUBKTNV-1" parent="WIyWlLk6GJQsqaUBKTNV-0" />
        <mxCell id="XTdvHDAk8kfulORVqyh_-16" style="edgeStyle=orthogonalEdgeStyle;rounded=0;orthogonalLoop=1;jettySize=auto;html=1;" edge="1" parent="WIyWlLk6GJQsqaUBKTNV-1" source="XTdvHDAk8kfulORVqyh_-0">
          <mxGeometry relative="1" as="geometry">
            <mxPoint x="500" y="410" as="targetPoint" />
          </mxGeometry>
        </mxCell>
        <mxCell id="XTdvHDAk8kfulORVqyh_-0" value="" style="rounded=1;whiteSpace=wrap;html=1;" vertex="1" parent="WIyWlLk6GJQsqaUBKTNV-1">
          <mxGeometry x="250" y="350" width="120" height="60" as="geometry" />
        </mxCell>
        <mxCell id="XTdvHDAk8kfulORVqyh_-1" value="" style="rounded=1;whiteSpace=wrap;html=1;" vertex="1" parent="WIyWlLk6GJQsqaUBKTNV-1">
          <mxGeometry x="610" y="440" width="120" height="60" as="geometry" />
        </mxCell>
        <mxCell id="XTdvHDAk8kfulORVqyh_-14" style="edgeStyle=orthogonalEdgeStyle;rounded=0;orthogonalLoop=1;jettySize=auto;html=1;entryX=0;entryY=0.5;entryDx=0;entryDy=0;" edge="1" parent="WIyWlLk6GJQsqaUBKTNV-1" source="XTdvHDAk8kfulORVqyh_-2" target="XTdvHDAk8kfulORVqyh_-1">
          <mxGeometry relative="1" as="geometry" />
        </mxCell>
        <mxCell id="XTdvHDAk8kfulORVqyh_-2" value="" style="rounded=1;whiteSpace=wrap;html=1;" vertex="1" parent="WIyWlLk6GJQsqaUBKTNV-1">
          <mxGeometry x="440" y="440" width="120" height="60" as="geometry" />
        </mxCell>
        <mxCell id="XTdvHDAk8kfulORVqyh_-13" style="edgeStyle=orthogonalEdgeStyle;rounded=0;orthogonalLoop=1;jettySize=auto;html=1;entryX=0;entryY=0.5;entryDx=0;entryDy=0;" edge="1" parent="WIyWlLk6GJQsqaUBKTNV-1" source="XTdvHDAk8kfulORVqyh_-3" target="XTdvHDAk8kfulORVqyh_-2">
          <mxGeometry relative="1" as="geometry" />
        </mxCell>
        <mxCell id="XTdvHDAk8kfulORVqyh_-3" value="" style="rounded=1;whiteSpace=wrap;html=1;" vertex="1" parent="WIyWlLk6GJQsqaUBKTNV-1">
          <mxGeometry x="250" y="440" width="120" height="60" as="geometry" />
        </mxCell>
        <mxCell id="XTdvHDAk8kfulORVqyh_-12" style="edgeStyle=orthogonalEdgeStyle;rounded=0;orthogonalLoop=1;jettySize=auto;html=1;entryX=0;entryY=0.5;entryDx=0;entryDy=0;" edge="1" parent="WIyWlLk6GJQsqaUBKTNV-1" source="XTdvHDAk8kfulORVqyh_-4" target="XTdvHDAk8kfulORVqyh_-3">
          <mxGeometry relative="1" as="geometry" />
        </mxCell>
        <mxCell id="XTdvHDAk8kfulORVqyh_-4" value="" style="rounded=1;whiteSpace=wrap;html=1;" vertex="1" parent="WIyWlLk6GJQsqaUBKTNV-1">
          <mxGeometry x="60" y="440" width="120" height="60" as="geometry" />
        </mxCell>
        <mxCell id="XTdvHDAk8kfulORVqyh_-15" style="edgeStyle=orthogonalEdgeStyle;rounded=0;orthogonalLoop=1;jettySize=auto;html=1;entryX=0.5;entryY=0;entryDx=0;entryDy=0;" edge="1" parent="WIyWlLk6GJQsqaUBKTNV-1" source="XTdvHDAk8kfulORVqyh_-5" target="XTdvHDAk8kfulORVqyh_-2">
          <mxGeometry relative="1" as="geometry" />
        </mxCell>
        <mxCell id="XTdvHDAk8kfulORVqyh_-5" value="" style="rounded=1;whiteSpace=wrap;html=1;" vertex="1" parent="WIyWlLk6GJQsqaUBKTNV-1">
          <mxGeometry x="440" y="310" width="120" height="60" as="geometry" />
        </mxCell>
        <mxCell id="XTdvHDAk8kfulORVqyh_-6" value="文本摘要模型（抽取，生成，结合）" style="text;html=1;strokeColor=none;fillColor=none;align=center;verticalAlign=middle;whiteSpace=wrap;rounded=0;" vertex="1" parent="WIyWlLk6GJQsqaUBKTNV-1">
          <mxGeometry x="440" y="325" width="130" height="30" as="geometry" />
        </mxCell>
        <mxCell id="XTdvHDAk8kfulORVqyh_-7" value="大量目标文章语料" style="text;html=1;strokeColor=none;fillColor=none;align=center;verticalAlign=middle;whiteSpace=wrap;rounded=0;" vertex="1" parent="WIyWlLk6GJQsqaUBKTNV-1">
          <mxGeometry x="270" y="365" width="80" height="30" as="geometry" />
        </mxCell>
        <mxCell id="XTdvHDAk8kfulORVqyh_-8" value="文本预处理" style="text;html=1;strokeColor=none;fillColor=none;align=center;verticalAlign=middle;whiteSpace=wrap;rounded=0;" vertex="1" parent="WIyWlLk6GJQsqaUBKTNV-1">
          <mxGeometry x="85" y="455" width="70" height="30" as="geometry" />
        </mxCell>
        <mxCell id="XTdvHDAk8kfulORVqyh_-9" value="词嵌入编码" style="text;html=1;strokeColor=none;fillColor=none;align=center;verticalAlign=middle;whiteSpace=wrap;rounded=0;" vertex="1" parent="WIyWlLk6GJQsqaUBKTNV-1">
          <mxGeometry x="275" y="455" width="70" height="30" as="geometry" />
        </mxCell>
        <mxCell id="XTdvHDAk8kfulORVqyh_-10" value="训练好的文本摘要模型" style="text;html=1;strokeColor=none;fillColor=none;align=center;verticalAlign=middle;whiteSpace=wrap;rounded=0;" vertex="1" parent="WIyWlLk6GJQsqaUBKTNV-1">
          <mxGeometry x="457.5" y="455" width="85" height="30" as="geometry" />
        </mxCell>
        <mxCell id="XTdvHDAk8kfulORVqyh_-11" value="生成摘要" style="text;html=1;strokeColor=none;fillColor=none;align=center;verticalAlign=middle;whiteSpace=wrap;rounded=0;" vertex="1" parent="WIyWlLk6GJQsqaUBKTNV-1">
          <mxGeometry x="640" y="455" width="60" height="30" as="geometry" />
        </mxCell>
        <mxCell id="XTdvHDAk8kfulORVqyh_-18" value="训练" style="text;html=1;strokeColor=none;fillColor=none;align=center;verticalAlign=middle;whiteSpace=wrap;rounded=0;" vertex="1" parent="WIyWlLk6GJQsqaUBKTNV-1">
          <mxGeometry x="440" y="380" width="60" height="30" as="geometry" />
        </mxCell>
      </root>
    </mxGraphModel>
  </diagram>
</mxfile>
